<svg xmlns="http://www.w3.org/2000/svg" xmlns:xlink="http://www.w3.org/1999/xlink" version="1.1" id="Layer_1" x="0px" y="0px" width="232px" height="70px" viewBox="0 0 232 70" enable-background="new 0 0 232 70" xml:space="preserve">
<g>
	<path fill="#ffffff" d="M49.945,0.522c-3.403,0-6.809,0-10.211,0c0,23.053,0,46.182,0,69.234c3.403,0,6.73,0,10.211,0   c0-0.542,0-0.929,0-1.238c0-4.951,0-9.901,0-14.853C49.945,35.952,49.945,18.236,49.945,0.522z"/>
	<path fill="#ffffff" d="M105.022,53.202c0-17.561,0-35.121,0-52.68c-3.096,0-6.189,0-9.284,0c0,0.464,0.077,0.851,0.077,1.314   c0,22.202,0,44.404,0,66.527c0,0.388,0,0.774,0,1.237c0.389,0,0.697,0.078,0.93,0.078c2.474,0,4.873,0,7.348,0   c0.774,0,1.006-0.231,1.006-1.006C105.022,63.49,105.022,58.385,105.022,53.202z"/>
	<path fill="#ffffff" d="M177.271,51.19c-0.771,0-1.16,0.232-1.546,0.929c-3.018,5.105-7.581,8.121-13.539,8.432   c-10.364,0.618-18.564-7.968-17.635-18.257c0.851-10.133,10.751-17.249,20.652-14.774c4.721,1.161,8.278,3.945,10.751,8.2   c0.156,0.31,0.545,0.696,0.853,0.696c3.019,0.077,5.958,0,9.052,0c-2.246-8.973-12.3-19.725-27.306-18.179   c-13.538,1.393-23.519,13.151-23.054,26.766c0.465,13.151,11.447,24.212,24.985,24.599c6.73,0.232,12.608-1.934,17.716-6.343   c3.712-3.172,6.266-7.192,7.734-11.991c-0.464,0-0.772,0-1.082,0C182.302,51.19,179.747,51.19,177.271,51.19z"/>
	<path fill="#ffffff" d="M115.696,69.601c3.095,0,6.111,0,9.126,0c0-17.172,0-34.269,0-51.441c-3.015,0-6.031,0-9.126,0   C115.696,35.332,115.696,52.505,115.696,69.601z"/>
	<path fill="#ffffff" d="M76.399,18.159c-2.784,0-5.259,0-7.735,0c-0.309,0-0.619,0.311-0.772,0.543   C62.167,25.121,56.52,31.542,50.873,38.04c-0.309,0.31-0.465,0.772-0.465,1.238c-0.077,2.318-0.077,4.563,0,6.885   c0,0.385,0.232,0.929,0.465,1.236c6.498,7.349,12.918,14.697,19.417,22.048c0.154,0.231,0.464,0.463,0.773,0.463   c2.553,0,5.183,0,7.967,0c-8.199-9.283-16.245-18.333-24.289-27.385C61.936,34.403,69.051,26.359,76.399,18.159z"/>
	<path fill="#ffffff" d="M151.359,43.764c0,5.415,4.407,9.824,9.823,9.824s9.823-4.485,9.823-9.9c0-5.338-4.407-9.747-9.823-9.825   C155.767,33.94,151.359,38.35,151.359,43.764z"/>
	<path fill="#ffffff" d="M84.601,18.159c-1.239,0-2.244,0.077-3.173,0c-0.695-0.078-1.158,0.232-1.624,0.772   c-6.808,7.737-13.615,15.396-20.499,23.053c-0.156,0.156-0.233,0.31-0.311,0.388c0.078,0.153,0.078,0.232,0.155,0.311   c7.968,8.895,15.936,17.712,23.904,26.609c0.154,0.155,0.387,0.387,0.619,0.387c1.237,0,2.475,0,3.945,0   c-8.354-9.284-16.477-18.256-24.599-27.307C70.212,34.327,77.251,26.359,84.601,18.159z"/>
	<path fill="#ffffff" d="M120.185,0.832c-3.558,0-6.421,2.94-6.421,6.499c0,3.557,2.863,6.419,6.421,6.419   c3.56,0,6.421-2.862,6.421-6.419C126.68,3.694,123.744,0.754,120.185,0.832z"/>
	<path fill="#ffffff" d="M196.767,19.088c-0.54,0.773-1.084,1.47-1.624,2.321c-0.618-0.928-1.237-1.625-1.701-2.399   c-0.388-0.618-0.853-0.851-1.627-0.54c0,1.934,0,3.867,0,5.801c0,0.774,0.464,0.541,1.008,0.464c0-1.547,0-3.095,0-4.563   c0.074,0,0.151,0,0.151-0.078c0.697,0.928,1.395,1.934,2.092,2.939c0.771-1.083,1.469-2.011,2.165-2.939   c0.077,0,0.152,0,0.232,0.078c0,1.545,0,3.016,0,4.64c0.387,0,0.617,0,0.928,0c0-2.087,0-4.176,0-6.342   C197.308,18.314,197.308,18.314,196.767,19.088z"/>
	<path fill="#ffffff" d="M190.035,18.314c-1.315,0-2.55,0-3.867,0c-0.618,0-0.852,0.231-0.463,0.929c0.619,0,1.238,0,1.935,0   c0,1.855,0,3.713,0,5.568c0.387,0,0.618-0.077,1.005-0.077c0-1.857,0-3.636,0-5.492c0.771,0,1.391,0,2.011,0   C190.811,18.546,190.655,18.314,190.035,18.314z"/>
</g>
</svg>